<svg width="24" height="24" viewBox="0 0 24 24" fill="none" xmlns="http://www.w3.org/2000/svg">
<path d="M3 12L2.29289 12.7071L1.58579 12L2.29289 11.2929L3 12ZM14 11C14.5523 11 15 11.4477 15 12C15 12.5523 14.5523 13 14 13L14 11ZM7.29289 17.7071L2.29289 12.7071L3.70711 11.2929L8.70711 16.2929L7.29289 17.7071ZM2.29289 11.2929L7.29289 6.29289L8.70711 7.70711L3.70711 12.7071L2.29289 11.2929ZM3 11L14 11L14 13L3 13L3 11Z" fill="#33363F"/>
<path d="M21 12L21.7071 12.7071L22.4142 12L21.7071 11.2929L21 12ZM14 11C13.4477 11 13 11.4477 13 12C13 12.5523 13.4477 13 14 13L14 11ZM16.7071 17.7071L21.7071 12.7071L20.2929 11.2929L15.2929 16.2929L16.7071 17.7071ZM21.7071 11.2929L16.7071 6.29289L15.2929 7.70711L20.2929 12.7071L21.7071 11.2929ZM21 11L14 11L14 13L21 13L21 11Z" fill="#33363F"/>
</svg>
